<svg xmlns="http://www.w3.org/2000/svg" width="85.652" height="85.338" version="1.1" viewBox="0 0 80.3 80.004"><defs><linearGradient id="a" x1="156" x2="151" y1="325" y2="120" gradientTransform="matrix(.403 0 0 .403 16.621 312.08)" gradientUnits="userSpaceOnUse"><stop offset="0" stop-color="#36d1dc"/><stop offset="1" stop-color="#5b86e5"/></linearGradient></defs><metadata/><g><path fill="url(#a)" d="m118.72 403.08a40 40 0 0 1 -40.2 40 40 40 0 0 1 -40.1 -40 40 40 0 0 1 39.8 -40 40 40 0 0 1 40.5 39" transform="translate(-38.421 -363.07)"/><path fill="#fff" d="m94.521 401.58v-10.6c0-8.87-7.17-16-16-16-8.87 0-16 7.17-16 16v10.6c-1.35 0.439-2.7 0.892-4.01 1.44v24.1c12.8 5.33 27.3 5.33 40.1 0v-24.1c-1.4-0.5-2.7-0.9-4.1-1.4zm-12 21.5h-8.02l1.5-8.97c-0.892-0.736-1.5-1.81-1.5-3.06 0-2.22 1.79-4.01 4.01-4.01s4.01 1.79 4.01 4.01c0 1.25-0.604 2.32-1.5 3.06zm7.5-23c-7.9-1.9-15.2-1.9-23.1 0v-9.05c0-6.66 4.94-12 11.6-12s11.6 5.38 11.6 12z" transform="translate(-38.421 -363.07)"/></g></svg>